<svg width="500" height="500" viewBox="0 0 500 500" fill="none" xmlns="http://www.w3.org/2000/svg">
<rect width="500" height="500" rx="250" fill="#435CFF"/>
<circle cx="250" cy="250" r="190" stroke="white" stroke-width="20"/>
<path d="M250 375L137 312.25V186.75L250 124L363 186.75V312.25L250 375ZM213.589 214.987C218.402 209.967 223.947 206.098 230.225 203.379C236.503 200.66 243.094 199.3 250 199.3C256.906 199.3 263.497 200.66 269.775 203.379C276.053 206.098 281.598 209.967 286.411 214.987L324.078 193.966L250 152.865L175.922 193.966L213.589 214.987ZM237.444 339.232V298.131C226.144 295.203 217.042 289.242 210.136 280.247C203.231 271.253 199.778 261.004 199.778 249.5C199.778 247.199 199.882 245.055 200.092 243.068C200.301 241.081 200.719 239.042 201.347 236.95L162.111 214.987V297.504L237.444 339.232ZM250 274.6C256.906 274.6 262.817 272.142 267.735 267.227C272.652 262.311 275.111 256.402 275.111 249.5C275.111 242.597 272.652 236.689 267.735 231.773C262.817 226.858 256.906 224.4 250 224.4C243.094 224.4 237.183 226.858 232.265 231.773C227.348 236.689 224.889 242.597 224.889 249.5C224.889 256.402 227.348 262.311 232.265 267.227C237.183 272.142 243.094 274.6 250 274.6ZM262.556 339.232L337.889 297.504V214.987L298.653 236.95C299.281 239.042 299.699 241.081 299.908 243.068C300.118 245.055 300.222 247.199 300.222 249.5C300.222 261.004 296.769 271.253 289.864 280.247C282.958 289.242 273.856 295.203 262.556 298.131V339.232Z" fill="white"/>
</svg>
